<!-- CO-STAR Framework SVG (2000x1000) -->
<svg xmlns="http://www.w3.org/2000/svg" width="2000" height="680" viewBox="0 0 2000 680" role="img" aria-labelledby="title desc">
  <title id="title">CO-STAR Framework diagram</title>
  <desc id="desc">A header pill labeled CO-STAR with six rounded node boxes (Context, Objective, Style, Tone, Audience, Response) connected by curved stems. Colors: deep red header and coral gradient nodes. Footer caption at bottom center.</desc>

  <defs>
    <!-- simple stylesheet -->
    <style><![CDATA[
      .header { fill: #b00020; }
      .header-text { fill: #eeeeee; font-family: Lato, 'Segoe UI', Inter, system-ui, -apple-system, Roboto, 'Helvetica Neue', Arial; font-weight:600; }
      .node { fill: #b00020; }
      .node-text { fill:#eeeeee; font-family: Lato, 'Segoe UI', Inter, system-ui, -apple-system, Roboto, 'Helvetica Neue', Arial; font-weight:600; }
      .connector { fill:none; stroke:#8b0000; stroke-width:4; stroke-linecap:round; stroke-linejoin:round; opacity:0.9; }
      .caption { fill:#222; font-family: Lato, 'Segoe UI', Inter, system-ui, -apple-system, Roboto, 'Helvetica Neue', Arial; font-weight:400; }
    ]]></style>
  </defs>

  <!-- canvas helpers (invisible) -->
  <rect width="100%" height="100%" fill="transparent" />

  <!-- Header pill -->
  <!-- header: width=65% => 1300, height=14% => 140, center at x=1000, y≈110 -->
  <g transform="translate(1000,110)">
    <rect class="header" x="-650" y="-70" width="1300" height="140" rx="70" ry="70" />
    <text class="header-text" x="0" y="8" font-size="64px" text-anchor="middle" dominant-baseline="middle">CO-STAR Framework</text>
  </g>

  <!-- Node layout -->
  <!-- node size: w=260 (13% of 2000), h=120 (12% of 1000) -->
  <!-- row y center = 420 -->
  <!-- compute centers at x = 10%,26%,42%,58%,74%,90% of 2000 -->
  <!-- centers: 200,520,840,1160,1480,1800 -->
  
  <!-- connectors from header bottom to nodes -->
  <!-- header bottom center point -->
  <g id="connectors">
    <!-- we will programmatically draw six connectors -->
    <!-- connector function approximated by explicit paths -->
    <path class="connector" d="M1000 180 C1000 240 200 300 200 360" />
    <path class="connector" d="M1000 180 C1000 240 520 300 520 360" />
    <path class="connector" d="M1000 180 C1000 240 840 300 840 360" />
    <path class="connector" d="M1000 180 C1000 240 1160 300 1160 360" />
    <path class="connector" d="M1000 180 C1000 240 1480 300 1480 360" />
    <path class="connector" d="M1000 180 C1000 240 1800 300 1800 360" />
  </g>

  <!-- nodes group -->
  <g id="nodes">
    <!-- Node 1: Context at center x=200 -->
    <g transform="translate(200,420)">
      <rect class="node" x="-130" y="-60" width="260" height="120" rx="18" ry="18" />
      <text class="node-text" x="0" y="6" font-size="42px" text-anchor="middle" dominant-baseline="middle">Context</text>
    </g>

    <!-- Node 2: Objective at x=520 -->
    <g transform="translate(520,420)">
      <rect class="node" x="-130" y="-60" width="260" height="120" rx="18" ry="18" />
      <text class="node-text" x="0" y="6" font-size="42px" text-anchor="middle" dominant-baseline="middle">Objective</text>
    </g>

    <!-- Node 3: Style at x=840 -->
    <g transform="translate(840,420)">
      <rect class="node" x="-130" y="-60" width="260" height="120" rx="18" ry="18" />
      <text class="node-text" x="0" y="6" font-size="42px" text-anchor="middle" dominant-baseline="middle">Style</text>
    </g>

    <!-- Node 4: Tone at x=1160 -->
    <g transform="translate(1160,420)">
      <rect class="node" x="-130" y="-60" width="260" height="120" rx="18" ry="18" />
      <text class="node-text" x="0" y="6" font-size="42px" text-anchor="middle" dominant-baseline="middle">Tone</text>
    </g>

    <!-- Node 5: Audience at x=1480 -->
    <g transform="translate(1480,420)">
      <rect class="node" x="-130" y="-60" width="260" height="120" rx="18" ry="18" />
      <text class="node-text" x="0" y="6" font-size="42px" text-anchor="middle" dominant-baseline="middle">Audience</text>
    </g>

    <!-- Node 6: Response at x=1800 -->
    <g transform="translate(1800,420)">
      <rect class="node" x="-130" y="-60" width="260" height="120" rx="18" ry="18" />
      <text class="node-text" x="0" y="6" font-size="42px" text-anchor="middle" dominant-baseline="middle">Response</text>
    </g>
  </g>

  <!-- footer caption -->
  <text class="caption" x="1000" y="620" font-size="42px" text-anchor="middle" dominant-baseline="middle">CO-STAR Framework — Context • Objective • Style • Tone • Audience • Response</text>

</svg>
